<mxfile host="app.diagrams.net" agent="Mozilla/5.0 (Windows NT 10.0; Win64; x64; rv:130.0) Gecko/20100101 Firefox/130.0" version="24.7.16">
  <diagram name="Page-1" id="bhDQ-NEPr_TEGvIwVCMC">
    <mxGraphModel dx="4986" dy="1864" grid="1" gridSize="10" guides="1" tooltips="1" connect="1" arrows="1" fold="1" page="1" pageScale="1" pageWidth="850" pageHeight="1100" math="0" shadow="0">
      <root>
        <mxCell id="0" />
        <mxCell id="1" parent="0" />
        <mxCell id="sm1Ydyo1t7s-Wyrx3dU1-1" value="" style="swimlane;startSize=0;" vertex="1" parent="1">
          <mxGeometry x="120" y="40" width="280" height="400" as="geometry" />
        </mxCell>
        <mxCell id="sm1Ydyo1t7s-Wyrx3dU1-9" value="View Items" style="ellipse;whiteSpace=wrap;html=1;" vertex="1" parent="sm1Ydyo1t7s-Wyrx3dU1-1">
          <mxGeometry x="90" y="30" width="100" height="40" as="geometry" />
        </mxCell>
        <mxCell id="sm1Ydyo1t7s-Wyrx3dU1-12" value="&lt;div&gt;Register&lt;/div&gt;" style="ellipse;whiteSpace=wrap;html=1;" vertex="1" parent="sm1Ydyo1t7s-Wyrx3dU1-1">
          <mxGeometry x="90" y="320" width="100" height="40" as="geometry" />
        </mxCell>
        <mxCell id="sm1Ydyo1t7s-Wyrx3dU1-11" value="Checkout" style="ellipse;whiteSpace=wrap;html=1;" vertex="1" parent="sm1Ydyo1t7s-Wyrx3dU1-1">
          <mxGeometry x="90" y="230" width="100" height="40" as="geometry" />
        </mxCell>
        <mxCell id="sm1Ydyo1t7s-Wyrx3dU1-10" value="Make Purchase" style="ellipse;whiteSpace=wrap;html=1;direction=west;" vertex="1" parent="sm1Ydyo1t7s-Wyrx3dU1-1">
          <mxGeometry x="90" y="130" width="100" height="40" as="geometry" />
        </mxCell>
        <mxCell id="sm1Ydyo1t7s-Wyrx3dU1-17" value="" style="endArrow=none;html=1;rounded=0;exitX=1;exitY=0.5;exitDx=0;exitDy=0;" edge="1" parent="sm1Ydyo1t7s-Wyrx3dU1-1" source="sm1Ydyo1t7s-Wyrx3dU1-11">
          <mxGeometry width="50" height="50" relative="1" as="geometry">
            <mxPoint x="200" y="250" as="sourcePoint" />
            <mxPoint x="350" y="130" as="targetPoint" />
          </mxGeometry>
        </mxCell>
        <mxCell id="sm1Ydyo1t7s-Wyrx3dU1-18" value="" style="endArrow=none;html=1;rounded=0;exitX=1;exitY=0.5;exitDx=0;exitDy=0;" edge="1" parent="sm1Ydyo1t7s-Wyrx3dU1-1" source="sm1Ydyo1t7s-Wyrx3dU1-12">
          <mxGeometry width="50" height="50" relative="1" as="geometry">
            <mxPoint x="190" y="340" as="sourcePoint" />
            <mxPoint x="350" y="20" as="targetPoint" />
          </mxGeometry>
        </mxCell>
        <mxCell id="sm1Ydyo1t7s-Wyrx3dU1-27" value="" style="endArrow=block;dashed=1;endFill=0;endSize=12;html=1;rounded=0;exitX=0.5;exitY=0;exitDx=0;exitDy=0;entryX=0.5;entryY=0;entryDx=0;entryDy=0;" edge="1" parent="sm1Ydyo1t7s-Wyrx3dU1-1" source="sm1Ydyo1t7s-Wyrx3dU1-10" target="sm1Ydyo1t7s-Wyrx3dU1-11">
          <mxGeometry width="160" relative="1" as="geometry">
            <mxPoint x="140" y="200" as="sourcePoint" />
            <mxPoint x="250" y="180" as="targetPoint" />
          </mxGeometry>
        </mxCell>
        <mxCell id="sm1Ydyo1t7s-Wyrx3dU1-28" value="" style="endArrow=block;dashed=1;endFill=0;endSize=12;html=1;rounded=0;exitX=0.5;exitY=1;exitDx=0;exitDy=0;entryX=0.5;entryY=1;entryDx=0;entryDy=0;" edge="1" parent="sm1Ydyo1t7s-Wyrx3dU1-1" source="sm1Ydyo1t7s-Wyrx3dU1-10" target="sm1Ydyo1t7s-Wyrx3dU1-9">
          <mxGeometry width="160" relative="1" as="geometry">
            <mxPoint x="90" y="180" as="sourcePoint" />
            <mxPoint x="250" y="180" as="targetPoint" />
          </mxGeometry>
        </mxCell>
        <mxCell id="sm1Ydyo1t7s-Wyrx3dU1-29" value="&amp;lt;&amp;lt;include&amp;gt;&amp;gt;" style="text;html=1;align=center;verticalAlign=middle;resizable=0;points=[];autosize=1;strokeColor=none;fillColor=none;" vertex="1" parent="sm1Ydyo1t7s-Wyrx3dU1-1">
          <mxGeometry x="140" y="88" width="90" height="30" as="geometry" />
        </mxCell>
        <mxCell id="sm1Ydyo1t7s-Wyrx3dU1-30" value="&amp;lt;&amp;lt;include&amp;gt;&amp;gt;" style="text;html=1;align=center;verticalAlign=middle;resizable=0;points=[];autosize=1;strokeColor=none;fillColor=none;" vertex="1" parent="sm1Ydyo1t7s-Wyrx3dU1-1">
          <mxGeometry x="130" y="185" width="90" height="30" as="geometry" />
        </mxCell>
        <mxCell id="sm1Ydyo1t7s-Wyrx3dU1-2" value="Registered&lt;br&gt;Customer" style="shape=umlActor;verticalLabelPosition=bottom;verticalAlign=top;html=1;outlineConnect=0;" vertex="1" parent="1">
          <mxGeometry x="40" y="80" width="30" height="60" as="geometry" />
        </mxCell>
        <mxCell id="sm1Ydyo1t7s-Wyrx3dU1-3" value="New Customer" style="shape=umlActor;verticalLabelPosition=bottom;verticalAlign=top;html=1;outlineConnect=0;" vertex="1" parent="1">
          <mxGeometry x="40" y="300" width="30" height="60" as="geometry" />
        </mxCell>
        <mxCell id="sm1Ydyo1t7s-Wyrx3dU1-4" value="Web Customer" style="shape=umlActor;verticalLabelPosition=bottom;verticalAlign=top;html=1;outlineConnect=0;" vertex="1" parent="1">
          <mxGeometry x="-40" y="190" width="30" height="60" as="geometry" />
        </mxCell>
        <mxCell id="sm1Ydyo1t7s-Wyrx3dU1-5" value="Authentication" style="shape=umlActor;verticalLabelPosition=bottom;verticalAlign=top;html=1;outlineConnect=0;" vertex="1" parent="1">
          <mxGeometry x="470" y="20" width="30" height="60" as="geometry" />
        </mxCell>
        <mxCell id="sm1Ydyo1t7s-Wyrx3dU1-6" value="Identity Provider" style="shape=umlActor;verticalLabelPosition=bottom;verticalAlign=top;html=1;outlineConnect=0;" vertex="1" parent="1">
          <mxGeometry x="470" y="140" width="30" height="60" as="geometry" />
        </mxCell>
        <mxCell id="sm1Ydyo1t7s-Wyrx3dU1-7" value="Credit Payment&lt;br&gt;Service" style="shape=umlActor;verticalLabelPosition=bottom;verticalAlign=top;html=1;outlineConnect=0;" vertex="1" parent="1">
          <mxGeometry x="470" y="230" width="30" height="60" as="geometry" />
        </mxCell>
        <mxCell id="sm1Ydyo1t7s-Wyrx3dU1-8" value="Paypal" style="shape=umlActor;verticalLabelPosition=bottom;verticalAlign=top;html=1;outlineConnect=0;" vertex="1" parent="1">
          <mxGeometry x="470" y="420" width="30" height="60" as="geometry" />
        </mxCell>
        <mxCell id="sm1Ydyo1t7s-Wyrx3dU1-14" value="Debit/Bank" style="shape=umlActor;verticalLabelPosition=bottom;verticalAlign=top;html=1;outlineConnect=0;" vertex="1" parent="1">
          <mxGeometry x="470" y="330" width="30" height="60" as="geometry" />
        </mxCell>
        <mxCell id="sm1Ydyo1t7s-Wyrx3dU1-15" value="" style="endArrow=none;html=1;rounded=0;exitX=1;exitY=0.5;exitDx=0;exitDy=0;" edge="1" parent="1" source="sm1Ydyo1t7s-Wyrx3dU1-9" target="sm1Ydyo1t7s-Wyrx3dU1-5">
          <mxGeometry width="50" height="50" relative="1" as="geometry">
            <mxPoint x="330" y="115" as="sourcePoint" />
            <mxPoint x="380" y="65" as="targetPoint" />
          </mxGeometry>
        </mxCell>
        <mxCell id="sm1Ydyo1t7s-Wyrx3dU1-16" value="" style="endArrow=none;html=1;rounded=0;exitX=1;exitY=0.5;exitDx=0;exitDy=0;" edge="1" parent="1" source="sm1Ydyo1t7s-Wyrx3dU1-9" target="sm1Ydyo1t7s-Wyrx3dU1-6">
          <mxGeometry width="50" height="50" relative="1" as="geometry">
            <mxPoint x="340" y="170" as="sourcePoint" />
            <mxPoint x="390" y="120" as="targetPoint" />
          </mxGeometry>
        </mxCell>
        <mxCell id="sm1Ydyo1t7s-Wyrx3dU1-19" value="" style="endArrow=none;html=1;rounded=0;exitX=1;exitY=0.5;exitDx=0;exitDy=0;entryX=0.5;entryY=0.5;entryDx=0;entryDy=0;entryPerimeter=0;" edge="1" parent="1" source="sm1Ydyo1t7s-Wyrx3dU1-11" target="sm1Ydyo1t7s-Wyrx3dU1-5">
          <mxGeometry width="50" height="50" relative="1" as="geometry">
            <mxPoint x="270" y="250" as="sourcePoint" />
            <mxPoint x="320" y="200" as="targetPoint" />
          </mxGeometry>
        </mxCell>
        <mxCell id="sm1Ydyo1t7s-Wyrx3dU1-20" value="" style="endArrow=none;html=1;rounded=0;exitX=1;exitY=0.5;exitDx=0;exitDy=0;" edge="1" parent="1" source="sm1Ydyo1t7s-Wyrx3dU1-11" target="sm1Ydyo1t7s-Wyrx3dU1-7">
          <mxGeometry width="50" height="50" relative="1" as="geometry">
            <mxPoint x="270" y="250" as="sourcePoint" />
            <mxPoint x="320" y="200" as="targetPoint" />
          </mxGeometry>
        </mxCell>
        <mxCell id="sm1Ydyo1t7s-Wyrx3dU1-21" value="" style="endArrow=none;html=1;rounded=0;exitX=1;exitY=0.5;exitDx=0;exitDy=0;entryX=0;entryY=0.3333333333333333;entryDx=0;entryDy=0;entryPerimeter=0;" edge="1" parent="1" source="sm1Ydyo1t7s-Wyrx3dU1-11" target="sm1Ydyo1t7s-Wyrx3dU1-14">
          <mxGeometry width="50" height="50" relative="1" as="geometry">
            <mxPoint x="270" y="250" as="sourcePoint" />
            <mxPoint x="320" y="200" as="targetPoint" />
          </mxGeometry>
        </mxCell>
        <mxCell id="sm1Ydyo1t7s-Wyrx3dU1-22" value="" style="endArrow=none;html=1;rounded=0;exitX=1;exitY=0.5;exitDx=0;exitDy=0;entryX=0;entryY=0.3333333333333333;entryDx=0;entryDy=0;entryPerimeter=0;" edge="1" parent="1" source="sm1Ydyo1t7s-Wyrx3dU1-11" target="sm1Ydyo1t7s-Wyrx3dU1-8">
          <mxGeometry width="50" height="50" relative="1" as="geometry">
            <mxPoint x="270" y="250" as="sourcePoint" />
            <mxPoint x="320" y="200" as="targetPoint" />
          </mxGeometry>
        </mxCell>
        <mxCell id="sm1Ydyo1t7s-Wyrx3dU1-23" value="" style="endArrow=none;html=1;rounded=0;exitX=0.5;exitY=0.5;exitDx=0;exitDy=0;exitPerimeter=0;entryX=0;entryY=0.5;entryDx=0;entryDy=0;" edge="1" parent="1" source="sm1Ydyo1t7s-Wyrx3dU1-2" target="sm1Ydyo1t7s-Wyrx3dU1-9">
          <mxGeometry width="50" height="50" relative="1" as="geometry">
            <mxPoint x="270" y="250" as="sourcePoint" />
            <mxPoint x="320" y="200" as="targetPoint" />
          </mxGeometry>
        </mxCell>
        <mxCell id="sm1Ydyo1t7s-Wyrx3dU1-24" value="" style="endArrow=none;html=1;rounded=0;exitX=0.5;exitY=0.5;exitDx=0;exitDy=0;exitPerimeter=0;entryX=1;entryY=0.5;entryDx=0;entryDy=0;" edge="1" parent="1" source="sm1Ydyo1t7s-Wyrx3dU1-2" target="sm1Ydyo1t7s-Wyrx3dU1-10">
          <mxGeometry width="50" height="50" relative="1" as="geometry">
            <mxPoint x="270" y="250" as="sourcePoint" />
            <mxPoint x="320" y="200" as="targetPoint" />
          </mxGeometry>
        </mxCell>
        <mxCell id="sm1Ydyo1t7s-Wyrx3dU1-25" value="" style="endArrow=none;html=1;rounded=0;exitX=0.5;exitY=0.5;exitDx=0;exitDy=0;exitPerimeter=0;entryX=0;entryY=0.5;entryDx=0;entryDy=0;" edge="1" parent="1" source="sm1Ydyo1t7s-Wyrx3dU1-3" target="sm1Ydyo1t7s-Wyrx3dU1-9">
          <mxGeometry width="50" height="50" relative="1" as="geometry">
            <mxPoint x="270" y="250" as="sourcePoint" />
            <mxPoint x="320" y="200" as="targetPoint" />
          </mxGeometry>
        </mxCell>
        <mxCell id="sm1Ydyo1t7s-Wyrx3dU1-26" value="" style="endArrow=none;html=1;rounded=0;exitX=0.5;exitY=0.5;exitDx=0;exitDy=0;exitPerimeter=0;entryX=0;entryY=0.5;entryDx=0;entryDy=0;" edge="1" parent="1" source="sm1Ydyo1t7s-Wyrx3dU1-3" target="sm1Ydyo1t7s-Wyrx3dU1-12">
          <mxGeometry width="50" height="50" relative="1" as="geometry">
            <mxPoint x="270" y="250" as="sourcePoint" />
            <mxPoint x="320" y="200" as="targetPoint" />
          </mxGeometry>
        </mxCell>
        <mxCell id="sm1Ydyo1t7s-Wyrx3dU1-32" value="" style="swimlane;startSize=0;" vertex="1" parent="1">
          <mxGeometry x="-340" y="530" width="420" height="420" as="geometry" />
        </mxCell>
        <mxCell id="sm1Ydyo1t7s-Wyrx3dU1-33" value="View Items" style="ellipse;whiteSpace=wrap;html=1;" vertex="1" parent="sm1Ydyo1t7s-Wyrx3dU1-32">
          <mxGeometry x="10" y="160" width="90" height="40" as="geometry" />
        </mxCell>
        <mxCell id="sm1Ydyo1t7s-Wyrx3dU1-34" value="Add to Wish List" style="ellipse;whiteSpace=wrap;html=1;" vertex="1" parent="sm1Ydyo1t7s-Wyrx3dU1-32">
          <mxGeometry x="140" y="310" width="80" height="45" as="geometry" />
        </mxCell>
        <mxCell id="sm1Ydyo1t7s-Wyrx3dU1-36" value="View Recommended Items" style="ellipse;whiteSpace=wrap;html=1;" vertex="1" parent="sm1Ydyo1t7s-Wyrx3dU1-32">
          <mxGeometry x="190" y="155" width="90" height="55" as="geometry" />
        </mxCell>
        <mxCell id="sm1Ydyo1t7s-Wyrx3dU1-37" value="Add to Shopping Cart" style="ellipse;whiteSpace=wrap;html=1;" vertex="1" parent="sm1Ydyo1t7s-Wyrx3dU1-32">
          <mxGeometry x="140" y="230" width="90" height="50" as="geometry" />
        </mxCell>
        <mxCell id="sm1Ydyo1t7s-Wyrx3dU1-38" value="Browse Items" style="ellipse;whiteSpace=wrap;html=1;" vertex="1" parent="sm1Ydyo1t7s-Wyrx3dU1-32">
          <mxGeometry x="140" y="90" width="80" height="45" as="geometry" />
        </mxCell>
        <mxCell id="sm1Ydyo1t7s-Wyrx3dU1-35" value="Search Items" style="ellipse;whiteSpace=wrap;html=1;" vertex="1" parent="sm1Ydyo1t7s-Wyrx3dU1-32">
          <mxGeometry x="140" y="25" width="80" height="45" as="geometry" />
        </mxCell>
        <mxCell id="sm1Ydyo1t7s-Wyrx3dU1-39" value="Customer&lt;br&gt;Authentication" style="ellipse;whiteSpace=wrap;html=1;" vertex="1" parent="sm1Ydyo1t7s-Wyrx3dU1-32">
          <mxGeometry x="310" y="270" width="90" height="50" as="geometry" />
        </mxCell>
        <mxCell id="sm1Ydyo1t7s-Wyrx3dU1-56" value="&amp;lt;&amp;lt;extend&amp;gt;&amp;gt;" style="endArrow=open;endSize=12;dashed=1;html=1;rounded=0;exitX=0;exitY=0.5;exitDx=0;exitDy=0;entryX=0.5;entryY=0;entryDx=0;entryDy=0;" edge="1" parent="sm1Ydyo1t7s-Wyrx3dU1-32" source="sm1Ydyo1t7s-Wyrx3dU1-35" target="sm1Ydyo1t7s-Wyrx3dU1-33">
          <mxGeometry width="160" relative="1" as="geometry">
            <mxPoint x="100" y="170" as="sourcePoint" />
            <mxPoint x="260" y="170" as="targetPoint" />
          </mxGeometry>
        </mxCell>
        <mxCell id="sm1Ydyo1t7s-Wyrx3dU1-57" value="&amp;lt;&amp;lt;extend&amp;gt;&amp;gt;" style="endArrow=open;endSize=12;dashed=1;html=1;rounded=0;exitX=0;exitY=0.5;exitDx=0;exitDy=0;entryX=0.76;entryY=0.043;entryDx=0;entryDy=0;entryPerimeter=0;" edge="1" parent="sm1Ydyo1t7s-Wyrx3dU1-32" source="sm1Ydyo1t7s-Wyrx3dU1-38" target="sm1Ydyo1t7s-Wyrx3dU1-33">
          <mxGeometry width="160" relative="1" as="geometry">
            <mxPoint x="150" y="58" as="sourcePoint" />
            <mxPoint x="65" y="170" as="targetPoint" />
          </mxGeometry>
        </mxCell>
        <mxCell id="sm1Ydyo1t7s-Wyrx3dU1-58" value="&amp;lt;&amp;lt;extend&amp;gt;&amp;gt;" style="endArrow=open;endSize=12;dashed=1;html=1;rounded=0;exitX=0;exitY=0.5;exitDx=0;exitDy=0;entryX=1;entryY=0.5;entryDx=0;entryDy=0;" edge="1" parent="sm1Ydyo1t7s-Wyrx3dU1-32" source="sm1Ydyo1t7s-Wyrx3dU1-36" target="sm1Ydyo1t7s-Wyrx3dU1-33">
          <mxGeometry width="160" relative="1" as="geometry">
            <mxPoint x="160" y="68" as="sourcePoint" />
            <mxPoint x="75" y="180" as="targetPoint" />
          </mxGeometry>
        </mxCell>
        <mxCell id="sm1Ydyo1t7s-Wyrx3dU1-59" value="&amp;lt;&amp;lt;extend&amp;gt;&amp;gt;" style="endArrow=open;endSize=12;dashed=1;html=1;rounded=0;exitX=0;exitY=0.5;exitDx=0;exitDy=0;entryX=1;entryY=1;entryDx=0;entryDy=0;" edge="1" parent="sm1Ydyo1t7s-Wyrx3dU1-32" source="sm1Ydyo1t7s-Wyrx3dU1-37" target="sm1Ydyo1t7s-Wyrx3dU1-33">
          <mxGeometry width="160" relative="1" as="geometry">
            <mxPoint x="210" y="98" as="sourcePoint" />
            <mxPoint x="125" y="210" as="targetPoint" />
          </mxGeometry>
        </mxCell>
        <mxCell id="sm1Ydyo1t7s-Wyrx3dU1-60" value="&amp;lt;&amp;lt;extend&amp;gt;&amp;gt;" style="endArrow=open;endSize=12;dashed=1;html=1;rounded=0;exitX=0;exitY=0.5;exitDx=0;exitDy=0;entryX=0.606;entryY=1.022;entryDx=0;entryDy=0;entryPerimeter=0;" edge="1" parent="sm1Ydyo1t7s-Wyrx3dU1-32" source="sm1Ydyo1t7s-Wyrx3dU1-34" target="sm1Ydyo1t7s-Wyrx3dU1-33">
          <mxGeometry width="160" relative="1" as="geometry">
            <mxPoint x="220" y="108" as="sourcePoint" />
            <mxPoint x="135" y="220" as="targetPoint" />
          </mxGeometry>
        </mxCell>
        <mxCell id="sm1Ydyo1t7s-Wyrx3dU1-61" value="&amp;lt;&amp;lt;extend&amp;gt;&amp;gt;" style="endArrow=open;endSize=12;dashed=1;html=1;rounded=0;exitX=0;exitY=0.5;exitDx=0;exitDy=0;entryX=1;entryY=0.5;entryDx=0;entryDy=0;" edge="1" parent="sm1Ydyo1t7s-Wyrx3dU1-32" source="sm1Ydyo1t7s-Wyrx3dU1-39" target="sm1Ydyo1t7s-Wyrx3dU1-37">
          <mxGeometry width="160" relative="1" as="geometry">
            <mxPoint x="230" y="118" as="sourcePoint" />
            <mxPoint x="145" y="230" as="targetPoint" />
          </mxGeometry>
        </mxCell>
        <mxCell id="sm1Ydyo1t7s-Wyrx3dU1-62" value="&amp;lt;&amp;lt;include&amp;gt;&amp;gt;" style="endArrow=open;endSize=12;dashed=1;html=1;rounded=0;exitX=1;exitY=0.5;exitDx=0;exitDy=0;entryX=0.258;entryY=-0.052;entryDx=0;entryDy=0;entryPerimeter=0;" edge="1" parent="sm1Ydyo1t7s-Wyrx3dU1-32" source="sm1Ydyo1t7s-Wyrx3dU1-36" target="sm1Ydyo1t7s-Wyrx3dU1-39">
          <mxGeometry width="160" relative="1" as="geometry">
            <mxPoint x="300" y="178" as="sourcePoint" />
            <mxPoint x="215" y="290" as="targetPoint" />
          </mxGeometry>
        </mxCell>
        <mxCell id="sm1Ydyo1t7s-Wyrx3dU1-63" value="&amp;lt;&amp;lt;include&amp;gt;&amp;gt;" style="endArrow=open;endSize=12;dashed=1;html=1;rounded=0;exitX=1;exitY=0.5;exitDx=0;exitDy=0;entryX=0.036;entryY=0.661;entryDx=0;entryDy=0;entryPerimeter=0;" edge="1" parent="sm1Ydyo1t7s-Wyrx3dU1-32" source="sm1Ydyo1t7s-Wyrx3dU1-34" target="sm1Ydyo1t7s-Wyrx3dU1-39">
          <mxGeometry width="160" relative="1" as="geometry">
            <mxPoint x="310" y="188" as="sourcePoint" />
            <mxPoint x="225" y="300" as="targetPoint" />
          </mxGeometry>
        </mxCell>
        <mxCell id="sm1Ydyo1t7s-Wyrx3dU1-64" value="" style="swimlane;startSize=0;" vertex="1" parent="1">
          <mxGeometry x="120" y="540" width="570" height="650" as="geometry" />
        </mxCell>
        <mxCell id="sm1Ydyo1t7s-Wyrx3dU1-65" value="Authentication" style="shape=umlActor;verticalLabelPosition=bottom;verticalAlign=top;html=1;outlineConnect=0;" vertex="1" parent="sm1Ydyo1t7s-Wyrx3dU1-64">
          <mxGeometry x="480" y="35" width="30" height="60" as="geometry" />
        </mxCell>
        <mxCell id="sm1Ydyo1t7s-Wyrx3dU1-66" value="Identity Provider" style="shape=umlActor;verticalLabelPosition=bottom;verticalAlign=top;html=1;outlineConnect=0;" vertex="1" parent="sm1Ydyo1t7s-Wyrx3dU1-64">
          <mxGeometry x="480" y="140" width="30" height="60" as="geometry" />
        </mxCell>
        <mxCell id="sm1Ydyo1t7s-Wyrx3dU1-67" value="Credit Payment Service" style="shape=umlActor;verticalLabelPosition=bottom;verticalAlign=top;html=1;outlineConnect=0;" vertex="1" parent="sm1Ydyo1t7s-Wyrx3dU1-64">
          <mxGeometry x="480" y="390" width="30" height="60" as="geometry" />
        </mxCell>
        <mxCell id="sm1Ydyo1t7s-Wyrx3dU1-68" value="PayPal" style="shape=umlActor;verticalLabelPosition=bottom;verticalAlign=top;html=1;outlineConnect=0;" vertex="1" parent="sm1Ydyo1t7s-Wyrx3dU1-64">
          <mxGeometry x="480" y="565" width="30" height="60" as="geometry" />
        </mxCell>
        <mxCell id="sm1Ydyo1t7s-Wyrx3dU1-69" value="Checkout" style="ellipse;whiteSpace=wrap;html=1;" vertex="1" parent="sm1Ydyo1t7s-Wyrx3dU1-64">
          <mxGeometry x="10" y="280" width="100" height="50" as="geometry" />
        </mxCell>
        <mxCell id="sm1Ydyo1t7s-Wyrx3dU1-79" value="Member Log-In" style="ellipse;whiteSpace=wrap;html=1;" vertex="1" parent="sm1Ydyo1t7s-Wyrx3dU1-64">
          <mxGeometry x="320" y="5" width="100" height="50" as="geometry" />
        </mxCell>
        <mxCell id="sm1Ydyo1t7s-Wyrx3dU1-78" value="Remember Me" style="ellipse;whiteSpace=wrap;html=1;" vertex="1" parent="sm1Ydyo1t7s-Wyrx3dU1-64">
          <mxGeometry x="320" y="60" width="100" height="50" as="geometry" />
        </mxCell>
        <mxCell id="sm1Ydyo1t7s-Wyrx3dU1-77" value="Single Sign-On" style="ellipse;whiteSpace=wrap;html=1;" vertex="1" parent="sm1Ydyo1t7s-Wyrx3dU1-64">
          <mxGeometry x="320" y="180" width="100" height="50" as="geometry" />
        </mxCell>
        <mxCell id="sm1Ydyo1t7s-Wyrx3dU1-76" value="Authenticate Customer" style="ellipse;whiteSpace=wrap;html=1;" vertex="1" parent="sm1Ydyo1t7s-Wyrx3dU1-64">
          <mxGeometry x="110" y="110" width="100" height="50" as="geometry" />
        </mxCell>
        <mxCell id="sm1Ydyo1t7s-Wyrx3dU1-75" value="Credit" style="ellipse;whiteSpace=wrap;html=1;" vertex="1" parent="sm1Ydyo1t7s-Wyrx3dU1-64">
          <mxGeometry x="320" y="395" width="100" height="50" as="geometry" />
        </mxCell>
        <mxCell id="sm1Ydyo1t7s-Wyrx3dU1-74" value="Debit/Bank" style="ellipse;whiteSpace=wrap;html=1;" vertex="1" parent="sm1Ydyo1t7s-Wyrx3dU1-64">
          <mxGeometry x="320" y="488" width="100" height="50" as="geometry" />
        </mxCell>
        <mxCell id="sm1Ydyo1t7s-Wyrx3dU1-83" value="Debit/Bank Service" style="shape=umlActor;verticalLabelPosition=bottom;verticalAlign=top;html=1;outlineConnect=0;" vertex="1" parent="sm1Ydyo1t7s-Wyrx3dU1-64">
          <mxGeometry x="480" y="480" width="30" height="60" as="geometry" />
        </mxCell>
        <mxCell id="sm1Ydyo1t7s-Wyrx3dU1-85" value="PayPal" style="ellipse;whiteSpace=wrap;html=1;" vertex="1" parent="sm1Ydyo1t7s-Wyrx3dU1-64">
          <mxGeometry x="320" y="575" width="100" height="50" as="geometry" />
        </mxCell>
        <mxCell id="sm1Ydyo1t7s-Wyrx3dU1-73" value="Payment" style="ellipse;whiteSpace=wrap;html=1;" vertex="1" parent="sm1Ydyo1t7s-Wyrx3dU1-64">
          <mxGeometry x="110" y="515" width="100" height="50" as="geometry" />
        </mxCell>
        <mxCell id="sm1Ydyo1t7s-Wyrx3dU1-72" value="Calculate Taxes and Shipping" style="ellipse;whiteSpace=wrap;html=1;" vertex="1" parent="sm1Ydyo1t7s-Wyrx3dU1-64">
          <mxGeometry x="310" y="280" width="100" height="50" as="geometry" />
        </mxCell>
        <mxCell id="sm1Ydyo1t7s-Wyrx3dU1-71" value="View/Update&lt;br&gt;Cart" style="ellipse;whiteSpace=wrap;html=1;" vertex="1" parent="sm1Ydyo1t7s-Wyrx3dU1-64">
          <mxGeometry x="176" y="280" width="100" height="50" as="geometry" />
        </mxCell>
        <mxCell id="sm1Ydyo1t7s-Wyrx3dU1-70" value="Calculate Total" style="ellipse;whiteSpace=wrap;html=1;" vertex="1" parent="sm1Ydyo1t7s-Wyrx3dU1-64">
          <mxGeometry x="445" y="280" width="100" height="50" as="geometry" />
        </mxCell>
        <mxCell id="sm1Ydyo1t7s-Wyrx3dU1-86" value="&amp;lt;&amp;lt;include&amp;gt;&amp;gt;" style="endArrow=open;endSize=12;dashed=1;html=1;rounded=0;exitX=0.5;exitY=0;exitDx=0;exitDy=0;entryX=0;entryY=1;entryDx=0;entryDy=0;" edge="1" parent="sm1Ydyo1t7s-Wyrx3dU1-64" source="sm1Ydyo1t7s-Wyrx3dU1-69" target="sm1Ydyo1t7s-Wyrx3dU1-76">
          <mxGeometry width="160" relative="1" as="geometry">
            <mxPoint x="200" y="350" as="sourcePoint" />
            <mxPoint x="360" y="350" as="targetPoint" />
          </mxGeometry>
        </mxCell>
        <mxCell id="sm1Ydyo1t7s-Wyrx3dU1-87" value="&amp;lt;&amp;lt;include&amp;gt;&amp;gt;" style="endArrow=open;endSize=12;dashed=1;html=1;rounded=0;exitX=1;exitY=0.5;exitDx=0;exitDy=0;entryX=0;entryY=0.5;entryDx=0;entryDy=0;" edge="1" parent="sm1Ydyo1t7s-Wyrx3dU1-64" source="sm1Ydyo1t7s-Wyrx3dU1-69" target="sm1Ydyo1t7s-Wyrx3dU1-71">
          <mxGeometry width="160" relative="1" as="geometry">
            <mxPoint x="200" y="350" as="sourcePoint" />
            <mxPoint x="360" y="350" as="targetPoint" />
          </mxGeometry>
        </mxCell>
        <mxCell id="sm1Ydyo1t7s-Wyrx3dU1-90" value="&amp;lt;&amp;lt;include&amp;gt;&amp;gt;" style="endArrow=open;endSize=12;dashed=1;html=1;rounded=0;exitX=0.5;exitY=1;exitDx=0;exitDy=0;entryX=0;entryY=0.5;entryDx=0;entryDy=0;" edge="1" parent="sm1Ydyo1t7s-Wyrx3dU1-64" source="sm1Ydyo1t7s-Wyrx3dU1-69" target="sm1Ydyo1t7s-Wyrx3dU1-73">
          <mxGeometry width="160" relative="1" as="geometry">
            <mxPoint x="200" y="350" as="sourcePoint" />
            <mxPoint x="360" y="350" as="targetPoint" />
          </mxGeometry>
        </mxCell>
        <mxCell id="sm1Ydyo1t7s-Wyrx3dU1-92" value="" style="endArrow=block;dashed=1;endFill=0;endSize=12;html=1;rounded=0;exitX=1;exitY=0.5;exitDx=0;exitDy=0;entryX=0;entryY=0.5;entryDx=0;entryDy=0;" edge="1" parent="sm1Ydyo1t7s-Wyrx3dU1-64" source="sm1Ydyo1t7s-Wyrx3dU1-71" target="sm1Ydyo1t7s-Wyrx3dU1-72">
          <mxGeometry width="160" relative="1" as="geometry">
            <mxPoint x="250" y="350" as="sourcePoint" />
            <mxPoint x="410" y="350" as="targetPoint" />
          </mxGeometry>
        </mxCell>
        <mxCell id="sm1Ydyo1t7s-Wyrx3dU1-93" value="" style="endArrow=block;dashed=1;endFill=0;endSize=12;html=1;rounded=0;exitX=1;exitY=0.5;exitDx=0;exitDy=0;entryX=0;entryY=0.5;entryDx=0;entryDy=0;" edge="1" parent="sm1Ydyo1t7s-Wyrx3dU1-64" source="sm1Ydyo1t7s-Wyrx3dU1-72" target="sm1Ydyo1t7s-Wyrx3dU1-70">
          <mxGeometry width="160" relative="1" as="geometry">
            <mxPoint x="250" y="350" as="sourcePoint" />
            <mxPoint x="410" y="350" as="targetPoint" />
          </mxGeometry>
        </mxCell>
        <mxCell id="sm1Ydyo1t7s-Wyrx3dU1-95" value="&amp;lt;&amp;lt;include&amp;gt;&amp;gt;" style="text;html=1;align=center;verticalAlign=middle;resizable=0;points=[];autosize=1;strokeColor=none;fillColor=none;" vertex="1" parent="sm1Ydyo1t7s-Wyrx3dU1-64">
          <mxGeometry x="380" y="260" width="90" height="30" as="geometry" />
        </mxCell>
        <mxCell id="sm1Ydyo1t7s-Wyrx3dU1-97" value="" style="endArrow=block;dashed=1;endFill=0;endSize=12;html=1;rounded=0;exitX=0;exitY=0.5;exitDx=0;exitDy=0;entryX=1;entryY=1;entryDx=0;entryDy=0;" edge="1" parent="sm1Ydyo1t7s-Wyrx3dU1-64" source="sm1Ydyo1t7s-Wyrx3dU1-85" target="sm1Ydyo1t7s-Wyrx3dU1-73">
          <mxGeometry width="160" relative="1" as="geometry">
            <mxPoint x="150" y="470" as="sourcePoint" />
            <mxPoint x="310" y="470" as="targetPoint" />
          </mxGeometry>
        </mxCell>
        <mxCell id="sm1Ydyo1t7s-Wyrx3dU1-98" value="" style="endArrow=block;dashed=1;endFill=0;endSize=12;html=1;rounded=0;exitX=0;exitY=0.5;exitDx=0;exitDy=0;entryX=1;entryY=0.5;entryDx=0;entryDy=0;" edge="1" parent="sm1Ydyo1t7s-Wyrx3dU1-64" source="sm1Ydyo1t7s-Wyrx3dU1-74" target="sm1Ydyo1t7s-Wyrx3dU1-73">
          <mxGeometry width="160" relative="1" as="geometry">
            <mxPoint x="150" y="470" as="sourcePoint" />
            <mxPoint x="310" y="470" as="targetPoint" />
          </mxGeometry>
        </mxCell>
        <mxCell id="sm1Ydyo1t7s-Wyrx3dU1-99" value="" style="endArrow=block;dashed=1;endFill=0;endSize=12;html=1;rounded=0;exitX=0;exitY=0.5;exitDx=0;exitDy=0;entryX=1;entryY=0;entryDx=0;entryDy=0;" edge="1" parent="sm1Ydyo1t7s-Wyrx3dU1-64" source="sm1Ydyo1t7s-Wyrx3dU1-75" target="sm1Ydyo1t7s-Wyrx3dU1-73">
          <mxGeometry width="160" relative="1" as="geometry">
            <mxPoint x="150" y="470" as="sourcePoint" />
            <mxPoint x="310" y="470" as="targetPoint" />
          </mxGeometry>
        </mxCell>
        <mxCell id="sm1Ydyo1t7s-Wyrx3dU1-100" value="" style="endArrow=none;html=1;rounded=0;exitX=1;exitY=0.5;exitDx=0;exitDy=0;" edge="1" parent="sm1Ydyo1t7s-Wyrx3dU1-64" source="sm1Ydyo1t7s-Wyrx3dU1-85" target="sm1Ydyo1t7s-Wyrx3dU1-68">
          <mxGeometry width="50" height="50" relative="1" as="geometry">
            <mxPoint x="450" y="600" as="sourcePoint" />
            <mxPoint x="500" y="550" as="targetPoint" />
          </mxGeometry>
        </mxCell>
        <mxCell id="sm1Ydyo1t7s-Wyrx3dU1-101" value="" style="endArrow=none;html=1;rounded=0;exitX=1;exitY=0.5;exitDx=0;exitDy=0;" edge="1" parent="sm1Ydyo1t7s-Wyrx3dU1-64" source="sm1Ydyo1t7s-Wyrx3dU1-74" target="sm1Ydyo1t7s-Wyrx3dU1-83">
          <mxGeometry width="50" height="50" relative="1" as="geometry">
            <mxPoint x="450" y="600" as="sourcePoint" />
            <mxPoint x="500" y="550" as="targetPoint" />
          </mxGeometry>
        </mxCell>
        <mxCell id="sm1Ydyo1t7s-Wyrx3dU1-102" value="" style="endArrow=none;html=1;rounded=0;exitX=1;exitY=0.5;exitDx=0;exitDy=0;" edge="1" parent="sm1Ydyo1t7s-Wyrx3dU1-64" source="sm1Ydyo1t7s-Wyrx3dU1-75" target="sm1Ydyo1t7s-Wyrx3dU1-67">
          <mxGeometry width="50" height="50" relative="1" as="geometry">
            <mxPoint x="450" y="600" as="sourcePoint" />
            <mxPoint x="500" y="550" as="targetPoint" />
            <Array as="points" />
          </mxGeometry>
        </mxCell>
        <mxCell id="sm1Ydyo1t7s-Wyrx3dU1-104" value="" style="endArrow=none;html=1;rounded=0;exitX=1;exitY=0.5;exitDx=0;exitDy=0;" edge="1" parent="sm1Ydyo1t7s-Wyrx3dU1-64" source="sm1Ydyo1t7s-Wyrx3dU1-79" target="sm1Ydyo1t7s-Wyrx3dU1-65">
          <mxGeometry width="50" height="50" relative="1" as="geometry">
            <mxPoint x="340" y="190" as="sourcePoint" />
            <mxPoint x="390" y="140" as="targetPoint" />
          </mxGeometry>
        </mxCell>
        <mxCell id="sm1Ydyo1t7s-Wyrx3dU1-105" value="" style="endArrow=none;html=1;rounded=0;exitX=1;exitY=0.5;exitDx=0;exitDy=0;" edge="1" parent="sm1Ydyo1t7s-Wyrx3dU1-64" source="sm1Ydyo1t7s-Wyrx3dU1-78" target="sm1Ydyo1t7s-Wyrx3dU1-65">
          <mxGeometry width="50" height="50" relative="1" as="geometry">
            <mxPoint x="340" y="190" as="sourcePoint" />
            <mxPoint x="390" y="140" as="targetPoint" />
          </mxGeometry>
        </mxCell>
        <mxCell id="sm1Ydyo1t7s-Wyrx3dU1-106" value="" style="endArrow=none;html=1;rounded=0;exitX=1;exitY=0.5;exitDx=0;exitDy=0;" edge="1" parent="sm1Ydyo1t7s-Wyrx3dU1-64" source="sm1Ydyo1t7s-Wyrx3dU1-77" target="sm1Ydyo1t7s-Wyrx3dU1-66">
          <mxGeometry width="50" height="50" relative="1" as="geometry">
            <mxPoint x="340" y="190" as="sourcePoint" />
            <mxPoint x="390" y="140" as="targetPoint" />
          </mxGeometry>
        </mxCell>
        <mxCell id="sm1Ydyo1t7s-Wyrx3dU1-107" value="" style="endArrow=block;dashed=1;endFill=0;endSize=12;html=1;rounded=0;exitX=0;exitY=0.5;exitDx=0;exitDy=0;entryX=1;entryY=1;entryDx=0;entryDy=0;" edge="1" parent="sm1Ydyo1t7s-Wyrx3dU1-64" source="sm1Ydyo1t7s-Wyrx3dU1-77" target="sm1Ydyo1t7s-Wyrx3dU1-76">
          <mxGeometry width="160" relative="1" as="geometry">
            <mxPoint x="290" y="170" as="sourcePoint" />
            <mxPoint x="450" y="170" as="targetPoint" />
          </mxGeometry>
        </mxCell>
        <mxCell id="sm1Ydyo1t7s-Wyrx3dU1-108" value="" style="endArrow=block;dashed=1;endFill=0;endSize=12;html=1;rounded=0;exitX=0;exitY=0.5;exitDx=0;exitDy=0;entryX=1;entryY=0.5;entryDx=0;entryDy=0;" edge="1" parent="sm1Ydyo1t7s-Wyrx3dU1-64" source="sm1Ydyo1t7s-Wyrx3dU1-78" target="sm1Ydyo1t7s-Wyrx3dU1-76">
          <mxGeometry width="160" relative="1" as="geometry">
            <mxPoint x="290" y="170" as="sourcePoint" />
            <mxPoint x="450" y="170" as="targetPoint" />
          </mxGeometry>
        </mxCell>
        <mxCell id="sm1Ydyo1t7s-Wyrx3dU1-109" value="" style="endArrow=block;dashed=1;endFill=0;endSize=12;html=1;rounded=0;exitX=0;exitY=0.5;exitDx=0;exitDy=0;entryX=1;entryY=0;entryDx=0;entryDy=0;" edge="1" parent="sm1Ydyo1t7s-Wyrx3dU1-64" source="sm1Ydyo1t7s-Wyrx3dU1-79" target="sm1Ydyo1t7s-Wyrx3dU1-76">
          <mxGeometry width="160" relative="1" as="geometry">
            <mxPoint x="290" y="170" as="sourcePoint" />
            <mxPoint x="450" y="170" as="targetPoint" />
          </mxGeometry>
        </mxCell>
        <mxCell id="sm1Ydyo1t7s-Wyrx3dU1-116" value="" style="endArrow=none;html=1;rounded=0;exitX=1;exitY=0.5;exitDx=0;exitDy=0;entryX=0;entryY=0.3333333333333333;entryDx=0;entryDy=0;entryPerimeter=0;" edge="1" parent="sm1Ydyo1t7s-Wyrx3dU1-64">
          <mxGeometry width="50" height="50" relative="1" as="geometry">
            <mxPoint x="376" y="145" as="sourcePoint" />
            <mxPoint x="480" y="160" as="targetPoint" />
          </mxGeometry>
        </mxCell>
        <mxCell id="sm1Ydyo1t7s-Wyrx3dU1-115" value="" style="endArrow=none;html=1;rounded=0;exitX=1;exitY=0.5;exitDx=0;exitDy=0;" edge="1" parent="sm1Ydyo1t7s-Wyrx3dU1-64">
          <mxGeometry width="50" height="50" relative="1" as="geometry">
            <mxPoint x="376" y="140" as="sourcePoint" />
            <mxPoint x="480" y="70.0840336134454" as="targetPoint" />
          </mxGeometry>
        </mxCell>
        <mxCell id="sm1Ydyo1t7s-Wyrx3dU1-110" value="Register New User" style="ellipse;whiteSpace=wrap;html=1;" vertex="1" parent="sm1Ydyo1t7s-Wyrx3dU1-64">
          <mxGeometry x="290" y="120" width="100" height="50" as="geometry" />
        </mxCell>
        <mxCell id="sm1Ydyo1t7s-Wyrx3dU1-117" value="" style="endArrow=none;html=1;rounded=0;exitX=0.5;exitY=0;exitDx=0;exitDy=0;entryX=0;entryY=0.5;entryDx=0;entryDy=0;" edge="1" parent="sm1Ydyo1t7s-Wyrx3dU1-64" source="sm1Ydyo1t7s-Wyrx3dU1-110" target="sm1Ydyo1t7s-Wyrx3dU1-79">
          <mxGeometry width="50" height="50" relative="1" as="geometry">
            <mxPoint x="380" y="220" as="sourcePoint" />
            <mxPoint x="430" y="170" as="targetPoint" />
          </mxGeometry>
        </mxCell>
        <mxCell id="sm1Ydyo1t7s-Wyrx3dU1-94" value="&amp;lt;&amp;lt;include&amp;gt;&amp;gt;" style="text;html=1;align=center;verticalAlign=middle;resizable=0;points=[];autosize=1;strokeColor=none;fillColor=none;" vertex="1" parent="1">
          <mxGeometry x="435" y="838" width="90" height="30" as="geometry" />
        </mxCell>
        <mxCell id="sm1Ydyo1t7s-Wyrx3dU1-120" value="&amp;lt;&amp;lt;include&amp;gt;&amp;gt;" style="endArrow=open;endSize=12;dashed=1;html=1;rounded=0;entryX=0;entryY=0.5;entryDx=0;entryDy=0;" edge="1" parent="1" target="sm1Ydyo1t7s-Wyrx3dU1-110">
          <mxGeometry width="160" relative="1" as="geometry">
            <mxPoint x="330" y="680" as="sourcePoint" />
            <mxPoint x="600" y="660" as="targetPoint" />
          </mxGeometry>
        </mxCell>
        <mxCell id="sm1Ydyo1t7s-Wyrx3dU1-121" value="Eric Coupe&lt;br&gt;Module 5&lt;br&gt;UML Use Case Diagram" style="text;html=1;align=center;verticalAlign=middle;resizable=0;points=[];autosize=1;strokeColor=none;fillColor=none;" vertex="1" parent="1">
          <mxGeometry x="-280" y="90" width="150" height="60" as="geometry" />
        </mxCell>
      </root>
    </mxGraphModel>
  </diagram>
</mxfile>
